<?xml version="1.0" standalone="no"?>
<!DOCTYPE svg PUBLIC "-//W3C//DTD SVG 20010904//EN"
 "http://www.w3.org/TR/2001/REC-SVG-20010904/DTD/svg10.dtd">
<svg version="1.0" xmlns="http://www.w3.org/2000/svg"
 width="64.000000pt" height="64.000000pt" viewBox="0 0 64.000000 64.000000"
 preserveAspectRatio="xMidYMid meet">

<g transform="translate(0.000000,64.000000) scale(0.100000,-0.100000)"
fill="#000000" stroke="none">
<path d="M250 571 c-46 -15 -85 -39 -116 -73 -54 -57 -69 -95 -69 -178 0 -83
15 -121 69 -178 53 -57 101 -77 186 -77 57 0 84 5 115 22 47 25 95 74 121 123
26 49 26 171 0 220 -26 49 -74 98 -121 122 -43 22 -144 33 -185 19z m50 -252
l0 -221 -27 6 c-60 15 -116 60 -146 116 -24 46 -28 64 -25 112 6 80 47 143
117 180 29 15 60 28 67 28 12 0 14 -39 14 -221z"/>
</g>
</svg>
